# xmcd CD database file
#
# Track frame offsets:
#	150
#	22579
#	40800
#
# Disc length: 859 seconds
#
# Revision: 2
# Processed by: cddbd v1.5.2PL0 Copyright (c) Steve Scherf et al.
# Submitted via: CDex 1.70beta2
#
DISCID=13035903
DTITLE=AK-69 - PUBLIC ENEMY
DYEAR=2010
DGENRE=New Age
TTITLE0=PUBLIC ENEMY
TTITLE1=MY TIME
TTITLE2=IRON HORSE -No Mark- 78ERS REMIX
EXTD=Special disk sent to radio stations \nprior to her album release. YEAR: 2010
EXTT0=
EXTT1=
EXTT2=
PLAYORDER=
